<svg width="25" height="24" viewBox="0 0 25 24" fill="none" xmlns="http://www.w3.org/2000/svg">
<g clip-path="url(#clip0_29_254)">
<circle cx="12.1914" cy="12" r="12" fill="#7B519D"/>
<path fill-rule="evenodd" clip-rule="evenodd" d="M17.5528 14.9786C17.1495 14.6527 16.7178 14.3594 16.2936 14.0602C15.447 13.4619 14.6728 13.4161 14.0411 14.3769C13.6861 14.9169 13.1903 14.9411 12.6711 14.7036C11.2395 14.0519 10.1345 13.0461 9.48698 11.5844C9.20031 10.9369 9.20365 10.3569 9.87448 9.89939C10.2286 9.65773 10.5861 9.37106 10.5578 8.84273C10.5203 8.15273 8.85531 5.84856 8.19781 5.60523C7.9331 5.50815 7.64253 5.50815 7.37781 5.60523C5.83531 6.12523 5.19615 7.40023 5.80781 8.91023C7.63281 13.4144 10.8436 16.5494 15.2653 18.4627C15.517 18.5711 15.797 18.6152 15.9386 18.6544C16.9453 18.6644 18.1245 17.6894 18.4653 16.7227C18.7928 15.7919 18.1011 15.4227 17.5528 14.9786ZM12.5953 6.06689C15.8278 6.56689 17.3186 8.11189 17.7303 11.3836C17.7678 11.6861 17.6553 12.1411 18.0853 12.1494C18.5336 12.1577 18.4253 11.7094 18.4295 11.4077C18.467 8.32523 15.7936 5.46856 12.6895 5.36356C12.4553 5.39689 11.9703 5.20106 11.9395 5.72856C11.9195 6.08439 12.3278 6.02606 12.5953 6.06689Z" fill="white"/>
<path fill-rule="evenodd" clip-rule="evenodd" d="M13.2281 6.96463C12.9173 6.92713 12.5073 6.77963 12.434 7.21379C12.359 7.66879 12.8156 7.62213 13.1098 7.68879C15.1056 8.13713 15.8015 8.86713 16.1298 10.8571C16.1773 11.148 16.0823 11.5988 16.5731 11.5238C16.9365 11.4688 16.8048 11.0821 16.8356 10.8555C16.8523 8.94463 15.2223 7.20546 13.2281 6.96463Z" fill="white"/>
<path fill-rule="evenodd" clip-rule="evenodd" d="M13.4112 8.52688C13.2037 8.53188 13.0004 8.55438 12.9237 8.77688C12.8096 9.11021 13.0504 9.19021 13.2954 9.23021C14.1146 9.36188 14.5454 9.84688 14.6271 10.6677C14.6496 10.891 14.7896 11.071 15.0037 11.046C15.3004 11.0102 15.3279 10.7452 15.3187 10.4927C15.3329 9.57104 14.2962 8.50521 13.4112 8.52688Z" fill="white"/>
</g>
<defs>
<clipPath id="clip0_29_254">
<rect width="24" height="24" fill="white" transform="translate(0.191406)"/>
</clipPath>
</defs>
</svg>
