<svg width="25" height="24" viewBox="0 0 25 24" fill="none" xmlns="http://www.w3.org/2000/svg">
<g clip-path="url(#clip0_29_261)">
<circle cx="12.1914" cy="12" r="12" fill="#65BC54"/>
<path fill-rule="evenodd" clip-rule="evenodd" d="M18.8587 11.828C18.8587 15.4147 15.9279 18.323 12.3129 18.323C11.2072 18.3245 10.119 18.0465 9.14956 17.5147L5.52539 18.6663L6.70706 15.1813C6.09144 14.1713 5.76645 13.0109 5.76789 11.828C5.76706 8.24051 8.69789 5.33301 12.3129 5.33301C15.9279 5.33301 18.8587 8.24134 18.8587 11.828ZM12.3129 6.36717C9.27872 6.36717 6.81039 8.81717 6.81039 11.828C6.80947 12.9797 7.1768 14.1016 7.85872 15.0297L7.17122 17.0572L9.28539 16.3855C10.1845 16.9762 11.2371 17.2903 12.3129 17.2888C15.3479 17.2888 17.8162 14.8388 17.8162 11.828C17.8162 8.81717 15.3479 6.36717 12.3129 6.36717ZM15.6187 13.3238C15.5779 13.2572 15.4712 13.2172 15.3104 13.138C15.1504 13.0588 14.3612 12.673 14.2146 12.6205C14.0671 12.5672 13.9604 12.5405 13.8529 12.6997C13.6927 12.9151 13.5231 13.1234 13.3446 13.3238C13.2512 13.4305 13.1579 13.443 12.9979 13.3638C12.8371 13.2838 12.3204 13.1163 11.7071 12.5738C11.3569 12.2525 11.0564 11.881 10.8154 11.4713C10.7212 11.3122 10.8046 11.2255 10.8854 11.1463C10.9571 11.0747 11.0454 10.9605 11.1262 10.868C11.2062 10.7747 11.2329 10.7088 11.2862 10.6022C11.3396 10.4955 11.3129 10.403 11.2729 10.323C11.2329 10.2438 10.9121 9.46051 10.7779 9.14134C10.6446 8.82301 10.5112 8.87634 10.4171 8.87634C10.3237 8.87634 10.2171 8.86301 10.1096 8.86301C10.0285 8.86512 9.94865 8.88389 9.87511 8.91815C9.80156 8.95242 9.73585 9.00144 9.68206 9.06217C9.53456 9.22051 9.12039 9.60634 9.12039 10.3897C9.12039 11.173 9.69539 11.9297 9.77539 12.0363C9.85539 12.1422 10.8854 13.8022 12.5162 14.4397C14.1479 15.0763 14.1479 14.8647 14.4412 14.8372C14.7354 14.8113 15.3912 14.453 15.5246 14.0805C15.6579 13.7088 15.6579 13.3897 15.6187 13.3238Z" fill="white"/>
</g>
<defs>
<clipPath id="clip0_29_261">
<rect width="24" height="24" fill="white" transform="translate(0.191406)"/>
</clipPath>
</defs>
</svg>
