<svg width="35" height="14" viewBox="0 0 35 14" fill="none" xmlns="http://www.w3.org/2000/svg">
<path d="M11.9477 0.359676C10.1547 0.579228 8.88615 0.908557 5.78802 1.93314C4.29994 2.42103 2.79967 2.88453 2.43374 2.94552C1.33598 3.15287 1.11643 3.27485 0.860285 3.84812C0.555351 4.54337 0.396786 5.22642 0.177233 6.89746C-0.0789113 8.83684 -0.0667139 9.31254 0.274812 9.81263C0.628536 10.3493 1.33598 10.5811 3.1046 10.7762C4.75124 10.947 4.87322 10.9836 4.87322 11.2519C4.87322 11.5447 5.20254 12.3375 5.50748 12.7644C6.10515 13.606 7.47125 14.0207 8.63 13.7158C9.28866 13.5328 10.0815 12.8254 10.3864 12.1423L10.6182 11.63H17.9976H25.377L25.5477 12.0204C25.7795 12.6058 26.182 13.0693 26.7553 13.4352C27.1944 13.728 27.3773 13.7646 28.2312 13.7646C29.085 13.7646 29.2679 13.728 29.7192 13.4352C30.2681 13.0693 30.7682 12.496 30.9634 11.9594L31.0975 11.63H32.7808C34.9519 11.63 34.9275 11.6422 34.9885 10.1664C35.0373 8.61729 34.9397 8.04401 34.525 7.6293C33.8419 6.94625 31.9879 6.17782 28.2921 5.04346C27.5847 4.82391 26.7675 4.56777 26.4625 4.47019C26.1698 4.37261 25.4258 3.9579 24.8159 3.55538C23.5474 2.68937 22.8521 2.28686 21.5714 1.6404C19.9857 0.84757 19.1929 0.615821 17.034 0.347479C15.241 0.127926 13.7163 0.127926 11.9477 0.359676ZM16.8266 1.75018C18.0342 1.89654 18.4489 1.99412 19.937 2.5552C21.0103 2.95771 23.4132 4.37261 23.5108 4.65315C23.5718 4.83611 21.9983 4.83611 19.1441 4.66534C18.0342 4.60436 16.2412 4.50678 15.1434 4.44579C14.0456 4.3848 13.1186 4.29942 13.0698 4.25063C12.9601 4.14086 12.7039 3.12848 12.6185 2.39664L12.5332 1.76237L12.9967 1.71358C13.9724 1.616 15.8386 1.6282 16.8266 1.75018ZM11.0817 2.15269C11.1427 2.29906 11.228 2.86014 11.2768 3.38462L11.3744 4.33602L10.7767 4.26283C10.4474 4.22624 9.19108 4.16525 7.98354 4.11646C5.95878 4.04328 5.48308 3.97009 5.48308 3.68956C5.48308 3.43341 6.776 2.96991 9.50821 2.25027C10.2157 2.05511 10.8255 1.89654 10.8865 1.88435C10.9353 1.88435 11.0207 1.99412 11.0817 2.15269Z" fill="#151515"/>
</svg>
