<svg width="35" height="16" viewBox="0 0 35 16" fill="none" xmlns="http://www.w3.org/2000/svg">
<path d="M3.63358 0.067174C2.1208 0.261477 1.7792 0.701897 1.34001 2.91695C0.62022 6.49212 0.449423 7.7227 0.547021 8.83671C0.63242 9.80822 0.60802 9.86003 0.156627 9.79527C-0.0751698 9.7564 -0.0385703 10.8963 0.193226 11.3238C0.522621 11.9196 1.32781 12.2435 4.31677 12.9948C4.69496 13.0984 4.71936 13.1373 5.07315 14.0311C5.48795 15.0933 6.82993 16 7.98891 16C8.5379 16 9.50169 15.6243 9.97748 15.2357C10.1971 15.0544 10.5387 14.6269 10.7339 14.2772L11.0999 13.6684L18.6272 13.6943L26.1422 13.7331L26.374 14.1865C26.8864 15.1969 28.1674 16 29.2532 16C29.79 16 30.7294 15.6503 31.2052 15.2616C31.681 14.886 32.1812 14.0699 32.291 13.5388C32.3276 13.3316 32.4252 13.0984 32.4984 13.0336C32.5838 12.9559 33.1205 12.8393 33.7061 12.7746C34.2917 12.6969 34.8407 12.6062 34.9139 12.5544C35.0115 12.4896 35.0237 11.9585 34.9627 10.7668C34.8651 8.65536 34.6821 7.5284 34.4259 7.28228C34.1697 7.06207 33.3279 6.86777 31.4126 6.6087C30.6074 6.50507 29.6192 6.36258 29.2166 6.28486C28.814 6.22009 27.7526 6.06465 26.862 5.94807L25.2517 5.71491L23.3851 3.57758C21.1769 1.03869 20.8963 0.740757 20.4693 0.507594C20.2863 0.403966 19.5177 0.261477 18.7614 0.19671C16.9558 0.0283136 4.69496 -0.0753155 3.63358 0.067174ZM8.29391 1.90657C8.29391 2.13974 8.20851 2.91695 8.11091 3.61644C8.01331 4.32888 7.92791 5.05428 7.92791 5.23563C7.92791 5.41698 7.86691 5.79263 7.79371 6.0517L7.67172 6.54393H5.42695C4.19477 6.54393 3.04798 6.49212 2.87719 6.4144C2.43799 6.246 2.2794 5.8574 2.42579 5.27449C2.48679 5.01542 2.64539 4.27707 2.75519 3.62939C2.87719 2.99467 3.03578 2.32109 3.12118 2.15269C3.41398 1.55683 3.68237 1.50501 6.07354 1.49206H8.29391V1.90657ZM14.8208 4.018V6.47917L12.1491 6.51803C10.6729 6.53098 9.42849 6.50507 9.37969 6.45326C9.34309 6.38849 9.34309 5.90921 9.40409 5.37812C9.46509 4.84702 9.56269 3.81074 9.63589 3.07239C9.69689 2.33404 9.78229 1.67341 9.83108 1.60864C9.86768 1.53092 10.8925 1.50501 12.3564 1.51797L14.8208 1.55683V4.018ZM18.5906 1.6475L19.7007 1.78999L20.7987 2.98172C22.1285 4.4066 23.2997 5.92216 23.2997 6.19419C23.2997 6.29782 23.2143 6.42735 23.1045 6.46621C22.9947 6.50507 21.4331 6.54393 19.6275 6.54393H16.3458V4.10867C16.3458 2.76151 16.3824 1.6216 16.4312 1.58274C16.5532 1.4532 17.3462 1.47911 18.5906 1.6475Z" fill="#151515"/>
</svg>
