<svg width="35" height="16" viewBox="0 0 35 16" fill="none" xmlns="http://www.w3.org/2000/svg">
<path d="M7.75016 0.0773792C5.22373 0.211634 3.41739 0.358093 3.00243 0.480144C2.12367 0.736448 0.964194 2.3353 0.500404 3.89754C0.12205 5.19127 0.0366149 8.65748 0.353944 10.3296C0.439379 10.7445 0.402764 10.9276 0.231895 11.2205C0.0854349 11.4524 0 11.8186 0 12.1847C0 12.7706 0.012205 12.795 0.402764 12.8682C2.1969 13.2221 2.55084 13.332 2.63628 13.6249C3.05125 14.9797 4.34497 15.9805 5.69973 15.9805C6.76156 15.9805 8.03088 15.2116 8.47026 14.3206C8.59231 14.0521 8.73877 13.7592 8.78759 13.6615C8.86082 13.5029 9.99588 13.4784 17.624 13.4418L26.3628 13.4174L26.6679 14.0765C27.1805 15.1871 28.3766 15.9805 29.5361 15.9805C30.6955 15.9805 32.2578 14.9064 32.5385 13.9056L32.6605 13.4784L33.6369 13.4418C34.5767 13.4052 34.6377 13.393 34.772 13.0757C35.0039 12.5875 35.0771 10.7689 34.9062 10.1343C34.6255 9.07245 33.4905 8.19369 31.3058 7.32714C30.7688 7.10745 30.2439 6.88776 30.1463 6.83894C30.0487 6.79012 29.6337 6.64366 29.2309 6.52161C28.5841 6.30192 28.3156 6.09443 26.8876 4.72748C24.2025 2.15223 22.7013 1.17583 20.4433 0.516759C19.2839 0.175019 11.1554 -0.105696 7.75016 0.0773792ZM8.51908 4.044L8.48246 6.52161L5.19932 6.55822C3.34416 6.57043 1.85516 6.53381 1.79413 6.47279C1.67208 6.35074 1.89177 4.72748 2.14808 3.89754C2.59966 2.46955 3.11227 1.92033 4.1741 1.71285C4.46702 1.65182 5.56547 1.603 6.62731 1.5908L8.54349 1.57859L8.51908 4.044ZM16.0496 4.08061V6.52161H12.9983H9.94706L9.91045 4.044L9.88603 1.57859L12.9617 1.603L16.0496 1.63962V4.08061ZM20.126 1.8471C20.8949 2.04238 21.9079 2.56719 22.8477 3.25067C23.8974 4.01959 26.2407 6.21648 26.2407 6.42397C26.2407 6.54602 25.4108 6.58263 21.9201 6.58263C19.174 6.58263 17.5752 6.53381 17.5508 6.46058C17.5386 6.39956 17.5264 5.2645 17.5508 3.94636L17.5874 1.54198L18.5882 1.62741C19.1374 1.67623 19.8209 1.77387 20.126 1.8471Z" fill="#151515"/>
</svg>
