<svg width="25" height="24" viewBox="0 0 25 24" fill="none" xmlns="http://www.w3.org/2000/svg">
<g clip-path="url(#clip0_29_244)">
<path d="M12.1914 0C5.56391 0 0.191406 5.3725 0.191406 12C0.191406 18.6275 5.56391 24 12.1914 24C18.8189 24 24.1914 18.6275 24.1914 12C24.1914 5.3725 18.8189 0 12.1914 0ZM16.8064 13.5388C16.8064 13.5388 17.8677 14.5863 18.1289 15.0725C18.1364 15.0825 18.1402 15.0925 18.1427 15.0975C18.2489 15.2763 18.2739 15.415 18.2214 15.5187C18.1339 15.6912 17.8339 15.7763 17.7314 15.7838H15.8564C15.7264 15.7838 15.4539 15.75 15.1239 15.5225C14.8702 15.345 14.6202 15.0537 14.3764 14.77C14.0127 14.3475 13.6977 13.9825 13.3802 13.9825C13.3398 13.9824 13.2997 13.9888 13.2614 14.0013C13.0214 14.0788 12.7139 14.4213 12.7139 15.3338C12.7139 15.6188 12.4889 15.7825 12.3302 15.7825H11.4714C11.1789 15.7825 9.65516 15.68 8.30516 14.2563C6.65266 12.5125 5.16516 9.015 5.15266 8.9825C5.05891 8.75625 5.25266 8.635 5.46391 8.635H7.35766C7.61016 8.635 7.69266 8.78875 7.75016 8.925C7.81766 9.08375 8.06516 9.715 8.47141 10.425C9.13016 11.5825 9.53391 12.0525 9.85766 12.0525C9.91836 12.0518 9.97799 12.0363 10.0314 12.0075C10.4539 11.7725 10.3752 10.2662 10.3564 9.95375C10.3564 9.895 10.3552 9.28 10.1389 8.985C9.98391 8.77125 9.72016 8.69 9.56016 8.66C9.62492 8.57064 9.71024 8.49818 9.80891 8.44875C10.0989 8.30375 10.6214 8.2825 11.1402 8.2825H11.4289C11.9914 8.29 12.1364 8.32625 12.3402 8.3775C12.7527 8.47625 12.7614 8.7425 12.7252 9.65375C12.7139 9.9125 12.7027 10.205 12.7027 10.55C12.7027 10.625 12.6989 10.705 12.6989 10.79C12.6864 11.2537 12.6714 11.78 12.9989 11.9963C13.0416 12.023 13.091 12.0373 13.1414 12.0375C13.2552 12.0375 13.5977 12.0375 14.5252 10.4463C14.8112 9.93407 15.0598 9.40185 15.2689 8.85375C15.2877 8.82125 15.3427 8.72125 15.4077 8.6825C15.4556 8.65805 15.5088 8.6456 15.5627 8.64625H17.7889C18.0314 8.64625 18.1977 8.6825 18.2289 8.77625C18.2839 8.925 18.2189 9.37875 17.2027 10.755L16.7489 11.3538C15.8277 12.5613 15.8277 12.6225 16.8064 13.5388Z" fill="#0077FF"/>
</g>
<defs>
<clipPath id="clip0_29_244">
<rect width="24" height="24" fill="white" transform="translate(0.191406)"/>
</clipPath>
</defs>
</svg>
