<svg width="25" height="24" viewBox="0 0 25 24" fill="none" xmlns="http://www.w3.org/2000/svg">
<g clip-path="url(#clip0_29_246)">
<circle cx="12.1914" cy="12" r="12" fill="#EB722E"/>
<path fill-rule="evenodd" clip-rule="evenodd" d="M11.9194 7.44689C11.5465 7.44733 11.189 7.59567 10.9253 7.85938C10.6616 8.12308 10.5132 8.48062 10.5128 8.85355C10.5128 9.62855 11.1436 10.2594 11.9194 10.2594C12.2922 10.2589 12.6496 10.1107 12.9133 9.84719C13.177 9.58367 13.3254 9.22635 13.3261 8.85355C13.3257 8.48062 13.1773 8.12308 12.9136 7.85938C12.6499 7.59567 12.2924 7.44733 11.9194 7.44689ZM11.9194 12.2494C11.019 12.2485 10.1557 11.8905 9.5189 11.2538C8.88211 10.6172 8.52387 9.75399 8.52277 8.85355C8.52343 7.95283 8.88148 7.08917 9.51831 6.45219C10.1551 5.8152 11.0187 5.45694 11.9194 5.45605C12.8203 5.45672 13.6841 5.81488 14.3211 6.45189C14.9581 7.0889 15.3163 7.95269 15.3169 8.85355C15.3158 9.75414 14.9575 10.6175 14.3205 11.2541C13.6835 11.8908 12.82 12.2487 11.9194 12.2494ZM10.5453 15.0202C9.84645 14.8611 9.17956 14.585 8.57277 14.2036C8.34932 14.063 8.19087 13.8394 8.13226 13.582C8.07366 13.3246 8.1197 13.0545 8.26027 12.8311C8.40083 12.6076 8.6244 12.4492 8.8818 12.3906C9.13919 12.3319 9.40932 12.378 9.63277 12.5186C10.3185 12.9475 11.111 13.175 11.9199 13.175C12.7287 13.175 13.5212 12.9475 14.2069 12.5186C14.4304 12.378 14.7005 12.3319 14.9579 12.3906C15.2153 12.4492 15.4389 12.6076 15.5794 12.8311C15.72 13.0545 15.766 13.3246 15.7074 13.582C15.6488 13.8394 15.4904 14.063 15.2669 14.2036C14.66 14.5848 13.9932 14.8609 13.2944 15.0202L15.1936 16.9202C15.286 17.0127 15.3592 17.1225 15.4092 17.2432C15.4591 17.364 15.4848 17.4934 15.4847 17.6241C15.4846 17.7548 15.4588 17.8842 15.4087 18.005C15.3586 18.1257 15.2852 18.2354 15.1928 18.3277C15.1003 18.4201 14.9905 18.4933 14.8698 18.5433C14.749 18.5932 14.6195 18.6189 14.4888 18.6188C14.3581 18.6187 14.2287 18.5929 14.108 18.5428C13.9873 18.4927 13.8776 18.4194 13.7853 18.3269L11.9203 16.4602L10.0536 18.3269C9.86696 18.5135 9.61381 18.6184 9.34985 18.6184C9.08589 18.6184 8.83275 18.5135 8.6461 18.3269C8.45945 18.1402 8.3546 17.8871 8.3546 17.6231C8.3546 17.3592 8.45945 17.106 8.6461 16.9194L10.5453 15.0202Z" fill="white"/>
</g>
<defs>
<clipPath id="clip0_29_246">
<rect width="24" height="24" fill="white" transform="translate(0.191406)"/>
</clipPath>
</defs>
</svg>
