<svg width="25" height="24" viewBox="0 0 25 24" fill="none" xmlns="http://www.w3.org/2000/svg">
<g clip-path="url(#clip0_29_250)">
<circle cx="12.1914" cy="12" r="12" fill="#64A9DC"/>
<path fill-rule="evenodd" clip-rule="evenodd" d="M17.9587 7.07398L6.14784 11.629C5.34201 11.9523 5.34618 12.4023 6.00118 12.6023L8.94617 13.5223L10.0737 16.9773C10.2103 17.3556 10.1428 17.5056 10.5403 17.5056C10.847 17.5056 10.982 17.3656 11.1537 17.199C11.262 17.0931 11.9062 16.4656 12.6262 15.7665L15.6903 18.0306C16.2537 18.3415 16.6612 18.1806 16.8012 17.5073L18.8128 8.02898C19.0187 7.20398 18.4978 6.82898 17.9587 7.07398ZM9.40867 13.3106L16.0478 9.12231C16.3795 8.92064 16.6837 9.02898 16.4337 9.25065L10.7487 14.3798L10.5278 16.7406L9.40867 13.3106Z" fill="white"/>
</g>
<defs>
<clipPath id="clip0_29_250">
<rect width="24" height="24" fill="white" transform="translate(0.191406)"/>
</clipPath>
</defs>
</svg>
