<svg width="28" height="26" viewBox="0 0 28 26" fill="none" xmlns="http://www.w3.org/2000/svg">
<path d="M24.666 8.66699H17.1833L18.6807 4.17766C18.95 3.36699 18.814 2.46833 18.314 1.77499C17.814 1.08166 17.0033 0.666992 16.1487 0.666992H13.9993C13.6033 0.666992 13.2287 0.842992 12.974 1.14699L6.70735 8.66699H3.33268C1.86202 8.66699 0.666016 9.86299 0.666016 11.3337V23.3337C0.666016 24.8043 1.86202 26.0003 3.33268 26.0003H21.0753C21.6179 25.9985 22.1471 25.8321 22.593 25.5231C23.0389 25.2141 23.3805 24.777 23.5727 24.2697L27.2487 14.4683C27.3045 14.3186 27.3329 14.1601 27.3327 14.0003V11.3337C27.3327 9.86299 26.1367 8.66699 24.666 8.66699ZM3.33268 11.3337H5.99935V23.3337H3.33268V11.3337ZM24.666 13.759L21.0753 23.3337H8.66602V10.483L14.6234 3.33366H16.1514L14.0687 9.57766C14.0011 9.77808 13.9822 9.99173 14.0137 10.2009C14.0451 10.4101 14.126 10.6087 14.2496 10.7804C14.3731 10.9521 14.5358 11.0918 14.7242 11.188C14.9126 11.2842 15.1212 11.3342 15.3327 11.3337H24.666V13.759Z" fill="#A8B1B7"/>
</svg>
