<svg width="44" height="44" viewBox="0 0 44 44" fill="none" xmlns="http://www.w3.org/2000/svg">
<path d="M44 5.5C44 4.04131 43.4205 2.64236 42.3891 1.61091C41.3576 0.579463 39.9587 0 38.5 0L5.5 0C4.04131 0 2.64236 0.579463 1.61091 1.61091C0.579463 2.64236 0 4.04131 0 5.5L0 27.5C0 28.9587 0.579463 30.3576 1.61091 31.3891C2.64236 32.4205 4.04131 33 5.5 33H31.8615C32.5908 33.0002 33.2901 33.29 33.8058 33.8058L41.6515 41.6515C41.8436 41.8441 42.0886 41.9754 42.3554 42.0288C42.6222 42.0821 42.8988 42.0551 43.1503 41.9512C43.4017 41.8472 43.6166 41.6711 43.7679 41.4449C43.9192 41.2188 43.9999 40.9528 44 40.6808V5.5ZM19.7835 13.1065C20.0227 13.4475 20.2318 13.8215 20.4077 14.2092C21.5847 16.8162 21.4885 20.746 17.8172 24.4008C17.5932 24.6192 17.2941 24.7437 16.9812 24.7488C16.6683 24.7539 16.3653 24.6392 16.1343 24.4283C16.0216 24.3262 15.931 24.2021 15.8681 24.0637C15.8051 23.9254 15.7712 23.7755 15.7684 23.6235C15.7655 23.4715 15.7939 23.3206 15.8516 23.1799C15.9093 23.0393 15.9952 22.9119 16.104 22.8057C17.2563 21.6618 17.952 20.5205 18.3288 19.4508C17.589 19.9045 16.7118 20.1658 15.7713 20.1658C13.1313 20.1658 11 18.1143 11 15.5842C11 13.0542 13.134 11 15.7685 11C16.5138 11 17.2205 11.165 17.8475 11.4565L17.8695 11.4675C18.3342 11.66 18.7687 11.968 19.1593 12.3585C19.393 12.5868 19.602 12.837 19.7835 13.1065ZM30.25 19.4508C29.5103 19.9045 28.633 20.1658 27.6925 20.1658C25.058 20.1658 22.9212 18.1143 22.9212 15.5842C22.9212 13.0542 25.058 11 27.6898 11C28.435 11 29.1418 11.165 29.7687 11.4565L29.7908 11.4675C30.2583 11.66 30.69 11.968 31.0805 12.3585C31.3143 12.5868 31.5233 12.837 31.7048 13.1065C31.944 13.4475 32.1558 13.8215 32.3317 14.2092C33.5088 16.8162 33.4097 20.746 29.7412 24.4008C29.517 24.62 29.2174 24.745 28.9038 24.7501C28.5903 24.7552 28.2867 24.64 28.0555 24.4283C27.9428 24.3262 27.8522 24.2021 27.7893 24.0637C27.7264 23.9254 27.6925 23.7755 27.6896 23.6235C27.6868 23.4715 27.7151 23.3206 27.7728 23.1799C27.8306 23.0393 27.9165 22.9119 28.0252 22.8057C29.1803 21.6618 29.8733 20.5205 30.2528 19.4508H30.25Z" fill="#CF2127"/>
</svg>
