<svg
   width="112"
   height="20"
   fill="none"
   version="1.1"
   xmlns:inkscape="http://www.inkscape.org/namespaces/inkscape"
   xmlns="http://www.w3.org/2000/svg"
   xmlns:svg="http://www.w3.org/2000/svg">
  <path
     fill="#C3C7CA"
     d="m102 15.27 6.18 3.73-1.64-7.03L112 7.24l-7.19-.61L102 0l-2.81 6.63-7.19.61 5.46 4.73L95.82 19l6.18-3.73Z"
     id="path2" />
  <path
     fill="#c3c7ca"
     d="m 79.264095,15.407982 6.18,3.73 -1.64,-7.03 5.46,-4.7299998 -7.19,-0.61 -2.81,-6.62999996 -2.81,6.62999996 -7.19,0.61 5.46,4.7299998 -1.64,7.03 z"
     id="path3" />
  <path
     fill="#c3c7ca"
     d="m 56.747774,15.407983 6.18,3.73 -1.64,-7.03 5.46,-4.7300007 -7.19,-0.61 -2.81,-6.62999998 -2.81,6.62999998 -7.19,0.61 5.46,4.7300007 -1.64,7.03 z"
     id="path4" />
  <path
     fill="#c3c7ca"
     d="m 32.818991,15.407982 6.18,3.73 -1.64,-7.03 5.46,-4.7299997 -7.19,-0.61 -2.81,-6.62999999 -2.81,6.62999999 -7.19,0.61 5.46,4.7299997 -1.64,7.03 z"
     id="path5" />
  <path
     fill="#c3c7ca"
     d="m 10.136498,15.407982 6.18,3.73 -1.64,-7.03 5.46,-4.7299996 -7.19,-0.61 -2.81,-6.63000009 -2.8099998,6.63000009 -7.19000001,0.61 5.46000001,4.7299996 -1.64,7.03 z"
     id="path6" />
</svg>
